<svg width="1440" height="1024" viewBox="0 0 1440 1024" fill="none" xmlns="http://www.w3.org/2000/svg">
<g id="Desktop - 1" clip-path="url(#clip0_1_79)">
<rect width="1440" height="1024" fill="white"/>
<g id="Mask group">
<rect id="Rectangle 2" width="1440" height="1024" fill="#1A1831"/>
<mask id="mask0_1_79" style="mask-type:alpha" maskUnits="userSpaceOnUse" x="0" y="0" width="1440" height="1024">
<rect id="Rectangle 1" width="1440" height="1024" fill="#1A1831"/>
</mask>
<g mask="url(#mask0_1_79)">
<g id="Group 1" filter="url(#filter0_f_1_79)">
<path id="Vector" fill-rule="evenodd" clip-rule="evenodd" d="M394.82 570.329C436.545 607.451 451.917 672.992 483.406 724.096C534.773 807.459 642.729 866.486 638.258 965.4C634.046 1058.57 521.268 1054.8 465.994 1109.29C415.416 1159.16 395.476 1271.43 327.968 1271.33C258.967 1271.22 211.301 1168.18 154.683 1108.8C113.452 1065.56 65.1461 1030.34 41.0919 970.45C18.5166 914.244 37.8195 852.946 27.7412 792.755C15.4248 719.197 -43.5153 645.977 -24.3564 579.569C-5.67141 514.804 61.1894 497.71 115.85 487.359C163.537 478.328 211.322 511.069 260.357 525.653C306.267 539.307 354.927 534.836 394.82 570.329Z" fill="#DECE9C"/>
<path id="Vector_2" fill-rule="evenodd" clip-rule="evenodd" d="M719.111 1111.45C702.272 1044.82 738.019 977.1 739.47 906.974C741.299 818.556 688.249 718.423 728.712 647.375C768.046 578.307 852.642 583.456 918.269 593.02C973.364 601.05 1006.76 679.846 1060.83 695.778C1125.45 714.817 1200.3 644.782 1255.54 692.397C1309.6 738.988 1338.75 840.956 1324.97 923.438C1311.08 1006.62 1216.16 1021.9 1187.72 1098.55C1158.26 1177.94 1213.77 1295.46 1164.49 1355.92C1118.2 1412.71 1039.8 1373.41 977.556 1356.4C923.024 1341.49 874.844 1307.13 829.794 1264.43C785.394 1222.35 736.274 1179.38 719.111 1111.45Z" fill="#20615B"/>
<path id="Vector_3" fill-rule="evenodd" clip-rule="evenodd" d="M1271.53 -94.1855C1334.1 -42.7073 1367.03 53.8385 1385.34 147.214C1403.66 240.656 1413.27 348.244 1374.36 430.311C1336.59 509.996 1253.1 520.203 1188.74 561.973C1139.28 594.068 1095.13 653.851 1040.11 647.229C986.382 640.763 962.446 546.871 910.374 528.472C836.296 502.296 727.621 604.659 684.826 521.69C643.296 441.173 743.497 349.793 771.992 260.18C789.217 206.009 805.619 155.085 819.176 99.1745C840.126 12.7701 815.769 -106.677 873.3 -157.651C927.544 -205.712 998.534 -127.821 1063.66 -117.442C1134.12 -106.214 1211.52 -143.555 1271.53 -94.1855Z" fill="#A21232"/>
<path id="Vector_4" fill-rule="evenodd" clip-rule="evenodd" d="M342.807 -205.3C395.95 -196.634 458.425 -236.442 499.911 -192.338C541.825 -147.777 514.745 -53.2395 542.632 7.13965C576.388 80.2258 659.756 105.566 675.706 188.283C692.655 276.178 669.64 375.036 627.477 447.138C584.355 520.878 516.759 584.026 445.599 581.782C375.59 579.574 332.864 483.058 272.901 435.957C231.133 403.149 182.87 389.868 146.815 347.088C107.315 300.22 60.0696 248.961 56.7692 179.51C53.4805 110.305 114.586 65.8492 130.302 -0.400482C149.605 -81.769 105.638 -197.38 158.2 -248.061C209.467 -297.494 279.508 -215.623 342.807 -205.3Z" fill="#074C73"/>
</g>
</g>
</g>
</g>
<defs>
<filter id="filter0_f_1_79" x="-428.154" y="-663.801" width="2229.47" height="2449.34" filterUnits="userSpaceOnUse" color-interpolation-filters="sRGB">
<feFlood flood-opacity="0" result="BackgroundImageFix"/>
<feBlend mode="normal" in="SourceGraphic" in2="BackgroundImageFix" result="shape"/>
<feGaussianBlur stdDeviation="200" result="effect1_foregroundBlur_1_79"/>
</filter>
<clipPath id="clip0_1_79">
<rect width="1440" height="1024" fill="white"/>
</clipPath>
</defs>
</svg>
